<svg xmlns="http://www.w3.org/2000/svg" width="128" height="128">
<path fill="#688FFF"
	d="
M1.000000,74.000000
	C1.000000,68.645073 1.000000,63.290142 1.346315,57.313423
	C3.775030,50.017899 5.857430,43.344166 8.121224,36.089092
	C11.938204,38.300697 14.623682,39.635078 17.064524,41.323181
	C20.675924,43.820858 22.807537,43.156807 23.782057,38.311169
	C19.969202,36.021286 16.047064,33.665771 11.871243,31.157904
	C12.909447,29.550823 13.614857,28.260929 14.503804,27.113190
	C24.373472,14.370221 37.161793,6.260329 52.964073,2.933580
	C55.658966,2.366243 58.322163,1.648343 61.000000,1.000000
	C63.700016,1.000000 66.400032,1.000000 69.771957,1.330517
	C90.997383,4.068941 107.506714,13.165285 119.553383,31.047417
	C115.140457,33.677681 111.207085,36.022110 106.956238,38.555771
	C108.145424,40.394768 109.079254,41.838882 110.118187,43.445530
	C114.481293,41.039558 118.354576,38.903702 123.170769,36.247883
	C125.157417,42.560204 126.933388,48.203106 128.633667,54.122971
	C128.746094,54.924511 128.934219,55.449085 129.121262,56.385284
	C129.299988,57.870544 129.479797,58.944176 129.584641,60.477345
	C129.803757,72.694725 128.550613,84.121498 122.530746,94.895935
	C118.178818,92.515137 114.144707,90.308212 109.808395,87.935959
	C108.823532,89.733887 108.060684,91.126511 107.097374,92.885078
	C111.271545,95.479439 115.175644,97.905937 119.049408,100.313576
	C118.793098,101.102669 118.732048,101.631088 118.471275,102.028419
	C117.740753,103.141464 116.975479,104.238869 116.139977,105.274757
	C106.481560,117.249680 94.198212,125.018806 79.139549,128.343643
	C68.673317,130.654526 68.675941,130.666901 68.529106,120.314705
	C68.522011,119.814781 68.710663,119.191452 68.481384,118.836906
	C67.639740,117.535400 66.660042,116.323166 65.732300,115.077332
	C64.616821,116.323486 62.729321,117.462563 62.538677,118.836990
	C62.071091,122.208092 62.385853,125.687691 62.385853,129.035477
	C44.623241,130.396896 19.039951,115.451828 12.275669,100.150848
	C16.163471,97.771698 20.080887,95.374428 24.271658,92.809883
	C23.139545,90.984154 22.297899,89.626854 21.282612,87.989532
	C16.926996,90.326019 12.891606,92.490730 8.346911,94.928650
	C6.871036,91.149353 5.515769,87.953392 4.374754,84.682671
	C3.145239,81.158272 2.116392,77.563866 1.000000,74.000000
M95.033928,86.329140
	C96.387741,85.561272 98.216728,85.074234 98.903511,83.912163
	C99.270508,83.291183 97.979652,81.005196 96.899864,80.331276
	C91.826256,77.164680 86.604965,74.226189 81.358826,71.347626
	C78.086403,69.552032 75.243980,67.929398 75.130074,63.328068
	C75.078888,61.259975 72.577797,59.306320 71.369682,57.196888
	C70.309464,55.345680 68.758812,53.368740 68.708076,51.414024
	C68.440697,41.112392 68.604500,30.800091 68.557343,20.491774
	C68.547935,18.436266 69.106934,15.959729 65.638496,15.891788
	C61.952999,15.819597 62.342365,18.348921 62.339378,20.670914
	C62.326111,30.979424 62.470387,41.291477 62.208912,51.593403
	C62.159000,53.559830 60.985672,55.950302 59.551804,57.343624
	C55.360291,61.416618 54.175610,66.219528 56.865486,70.775711
	C59.474289,75.194572 64.478424,76.569450 69.940247,74.907402
	C71.716980,74.366737 74.193443,74.479935 75.804016,75.329208
	C82.121429,78.660446 88.220917,82.404961 95.033928,86.329140
z"/>
</svg>
