<?xml version="1.0" standalone="no"?>
<!DOCTYPE svg PUBLIC "-//W3C//DTD SVG 20010904//EN"
 "http://www.w3.org/TR/2001/REC-SVG-20010904/DTD/svg10.dtd">
<svg version="1.0" xmlns="http://www.w3.org/2000/svg"
 width="130.000000pt" height="130.000000pt" viewBox="0 0 130.000000 130.000000"
 preserveAspectRatio="xMidYMid meet">
<g transform="translate(0.000000,130.000000) scale(0.100000,-0.100000)"
fill="#aae000" stroke="none">
<path d="M417 1160 l6 -30 -124 0 -124 0 3 -120 4 -120 -36 0 c-33 0 -36 -2
-36 -31 0 -28 2 -30 33 -27 l32 3 3 -77 3 -78 -36 0 c-32 0 -35 -2 -35 -31 0
-28 2 -30 32 -27 l33 3 3 -77 3 -78 -36 0 c-32 0 -35 -2 -35 -31 0 -28 2 -30
33 -27 l32 3 2 -120 1 -120 119 -1 118 -1 -1 -32 c-2 -29 0 -31 32 -31 32 0
34 2 32 31 l-3 30 75 1 75 1 -3 -31 c-2 -29 0 -32 28 -32 27 0 30 3 30 33 l0
32 77 -2 78 -2 -1 -31 c-2 -28 0 -30 32 -30 32 0 34 2 32 32 l-3 31 118 -2
117 -2 0 124 0 125 33 -2 c28 -1 32 2 35 27 3 25 1 27 -32 27 l-36 0 0 79 0
80 34 -6 c34 -5 35 -4 34 26 -1 28 -4 31 -35 31 l-33 0 0 79 0 79 33 -2 c28
-1 32 2 35 27 3 25 1 27 -32 27 l-36 0 0 120 0 120 -120 0 -120 0 0 30 c0 27
-3 30 -31 30 -30 0 -31 -2 -25 -30 l6 -30 -80 0 -80 0 0 30 c0 27 -3 30 -31
30 -30 0 -31 -2 -25 -30 l6 -30 -81 0 -81 0 7 30 c6 29 5 30 -29 30 -34 0 -35
-1 -29 -30z m42 -76 c-14 -14 -17 -14 -29 0 -10 13 -10 19 0 32 12 14 15 14
29 0 14 -15 14 -17 0 -32z m217 7 c-10 -16 -36 -13 -43 5 -8 22 18 37 36 20 7
-8 10 -19 7 -25z m204 24 c10 -12 10 -18 0 -31 -12 -13 -15 -13 -28 0 -15 15
-10 46 6 46 5 0 15 -7 22 -15z m-466 -75 c-2 -28 1 -30 32 -30 32 0 34 2 32
31 l-3 30 75 1 75 1 -3 -31 c-3 -30 -1 -32 27 -32 28 0 31 3 31 33 l0 32 77
-2 78 -2 -3 -30 c-3 -29 -1 -31 27 -31 28 0 31 3 31 33 l0 32 91 -1 92 -2 0
-88 0 -89 -32 -3 c-27 -3 -31 -7 -31 -33 0 -28 3 -30 31 -27 l30 3 2 -78 2
-77 -32 0 c-30 0 -33 -3 -33 -31 0 -28 2 -30 31 -27 l32 3 1 -78 1 -77 -32 0
c-30 0 -33 -3 -33 -31 0 -28 2 -30 31 -27 l31 3 2 -93 1 -92 -94 0 -93 0 6 30
c5 29 4 30 -29 30 -33 0 -34 -1 -28 -30 l6 -30 -82 0 -81 0 0 30 c0 27 -3 30
-30 30 -27 0 -29 -2 -23 -30 l6 -30 -83 0 -82 0 7 30 c6 29 5 30 -29 30 -34 0
-35 -1 -29 -30 l6 -30 -97 0 -97 0 3 92 3 92 30 1 c25 0 31 4 33 27 3 26 1 28
-33 28 l-36 0 3 78 3 77 33 -3 c30 -3 32 -1 32 27 0 29 -3 31 -35 31 l-36 0 3
78 3 77 30 0 c25 0 30 4 33 28 3 25 1 27 -32 27 l-36 0 0 88 c0 49 2 91 4 93
2 2 44 3 93 2 l88 -2 -1 -31z m-190 -167 c4 -9 1 -23 -7 -30 -12 -12 -16 -12
-27 1 -10 13 -10 19 0 31 16 19 26 19 34 -2z m896 2 c13 -16 6 -35 -15 -35
-18 0 -28 17 -21 35 7 19 20 19 36 0z m-896 -211 c7 -19 -1 -34 -19 -34 -8 0
-16 4 -19 9 -9 14 4 41 19 41 7 0 16 -7 19 -16z m896 1 c13 -16 6 -35 -15 -35
-18 0 -28 17 -21 35 7 19 20 19 36 0z m-896 -211 c7 -19 -1 -34 -19 -34 -21 0
-28 19 -15 35 16 19 26 19 34 -1z m896 1 c13 -16 6 -35 -15 -35 -18 0 -28 17
-21 35 7 19 20 19 36 0z m-654 -264 c-9 -14 -33 -14 -41 -1 -4 6 -1 18 6 26
11 13 14 13 27 0 8 -8 11 -19 8 -25z m210 0 c-10 -16 -36 -13 -43 5 -8 22 18
37 36 20 7 -8 10 -19 7 -25z m212 10 c-2 -9 -11 -17 -21 -19 -21 -4 -35 27
-17 38 19 12 42 0 38 -19z"/>
<path d="M440 650 l0 -210 213 0 212 0 0 210 0 210 -212 0 -213 0 0 -210z
m390 0 l0 -180 -177 2 -178 3 -2 178 -2 177 180 0 179 0 0 -180z"/>
</g>
</svg>
