<svg xmlns="http://www.w3.org/2000/svg" width="128" height="128">
<path fill="#7B6DFF"
	d="
M61.675598,52.314468
	C65.047585,52.027767 66.824684,52.648743 66.750206,56.269596
	C66.555145,65.751450 66.593803,75.241341 66.736366,84.725067
	C66.782753,87.810608 65.630089,88.808395 62.640553,88.731941
	C56.487080,88.574570 50.325466,88.610107 44.169903,88.719032
	C41.534508,88.765678 40.049610,87.963058 40.054817,85.103508
	C40.072620,75.321571 40.057278,65.539444 40.010590,55.757599
	C39.996357,52.775650 41.726139,52.247440 44.240414,52.287350
	C49.897213,52.377129 55.556435,52.314610 61.675598,52.314468
z"/>
<path fill="#7567FF"
	d="
M28.887009,52.685013
	C30.808456,52.796207 32.243328,52.907574 33.577499,53.011127
	C33.577499,64.770683 33.577499,76.141914 33.577499,88.283638
	C25.219507,88.283638 16.651979,88.395790 8.095885,88.134102
	C7.087263,88.103249 5.324983,86.041298 5.295153,84.885216
	C5.048541,75.327515 4.972950,65.756058 5.301900,56.204475
	C5.343852,54.986332 7.956495,52.941460 9.473710,52.849144
	C15.762660,52.466488 22.088278,52.686474 28.887009,52.685013
z"/>
<path fill="#7567FF"
	d="
M118.004288,52.683258
	C120.834030,52.683231 123.166290,52.683537 125.498558,52.683655
	C133.929993,52.684082 134.439392,52.660656 134.815887,60.856529
	C135.179535,68.772728 134.477051,76.753929 133.896332,84.681190
	C133.803055,85.954353 131.932999,88.098640 130.825439,88.136917
	C122.389977,88.428421 113.939873,88.296608 105.540726,88.296608
	C105.540726,76.317123 105.540726,64.911888 105.540726,52.683506
	C109.329987,52.683506 113.418396,52.683506 118.004288,52.683258
z"/>
<path fill="#7466FF"
	d="
M72.863739,86.845490
	C72.751991,75.414421 72.751991,64.462883 72.751991,53.101360
	C81.493561,53.101360 89.864525,53.101360 98.514565,53.101360
	C100.629745,64.142113 100.332123,75.189087 98.887573,86.241409
	C98.792000,86.972679 97.714035,88.164726 97.114258,88.151863
	C89.065788,87.979218 81.021111,87.630226 72.863739,86.845490
z"/>
<path fill="#7769FF"
	d="
M23.985573,94.678329
	C34.861179,94.679909 34.887897,94.671234 38.007896,104.284958
	C41.826485,116.051285 48.003574,126.273422 58.130314,134.337692
	C41.091167,134.800156 14.223234,115.167572 9.069301,94.678574
	C13.981414,94.678574 18.735971,94.678574 23.985573,94.678329
z"/>
<path fill="#7669FF"
	d="
M90.818237,132.937134
	C87.583199,133.814041 84.729492,134.589096 81.875778,135.364166
	C81.692360,135.064377 81.508949,134.764587 81.325531,134.464813
	C83.369934,132.516830 85.519455,130.666718 87.440353,128.603745
	C95.352676,120.106224 100.135262,109.929138 102.771706,98.751785
	C103.473320,95.777245 104.530426,94.534393 107.688683,94.618324
	C114.992744,94.812424 122.305489,94.680008 130.782166,94.680008
	C122.954514,113.935226 109.605400,125.958527 90.818237,132.937134
z"/>
<path fill="#7669FF"
	d="
M46.483498,18.535217
	C42.875687,26.901503 39.529930,34.995148 36.021042,43.017437
	C35.469482,44.278450 34.207851,46.127338 33.224617,46.159107
	C25.277067,46.415867 17.317579,46.303120 9.342268,46.303120
	C10.288833,30.528753 38.185421,7.054485 56.987648,6.219638
	C53.402348,10.405143 50.047077,14.322105 46.483498,18.535217
z"/>
<path fill="#7668FF"
	d="
M90.544624,15.498798
	C87.415733,12.322375 84.508255,9.426331 81.495003,6.424936
	C95.308578,5.654570 122.795937,22.104794 130.642273,46.281975
	C122.231056,46.281975 114.037979,46.420605 105.862450,46.104855
	C104.851349,46.065804 103.450722,43.737503 103.051201,42.249660
	C100.485985,32.696732 96.782303,23.712389 90.544624,15.498798
z"/>
<path fill="#7C6EFF"
	d="
M97.098068,44.981438
	C95.620766,45.837585 94.150169,46.587364 92.658691,46.631516
	C87.509949,46.783928 82.345398,46.509903 77.203575,46.752380
	C73.651276,46.919899 72.141777,45.999763 72.227119,42.084198
	C72.464935,31.172510 72.309753,20.252258 72.309753,9.209136
	C83.659546,11.879597 94.867615,30.773630 97.098068,44.981438
z"/>
<path fill="#7C6EFF"
	d="
M52.152218,21.188669
	C56.553589,16.662546 60.749657,12.430397 64.945732,8.198247
	C65.527634,8.542576 66.109535,8.886904 66.691437,9.231233
	C66.691437,16.454763 66.789520,23.680082 66.657997,30.901218
	C66.565628,35.973301 67.978668,42.659023 65.343674,45.617535
	C63.065277,48.175671 56.031193,46.537113 51.097149,46.676338
	C48.172970,46.758846 45.244556,46.691437 41.692898,46.691437
	C43.478001,37.043262 46.760181,28.889870 52.152218,21.188669
z"/>
<path fill="#7C6EFF"
	d="
M72.308739,103.108673
	C72.409828,93.283531 71.180969,94.378967 80.439453,94.315186
	C85.867134,94.277794 91.295288,94.308357 96.686066,94.308357
	C97.048820,107.243706 84.703270,126.461060 72.308479,132.006927
	C72.308479,122.309128 72.308479,112.950119 72.308739,103.108673
z"/>
<path fill="#7C6FFF"
	d="
M49.928478,116.033386
	C46.865166,108.955330 43.964840,102.203690 40.588615,94.344193
	C49.657337,94.344193 56.934589,94.227180 64.197395,94.497894
	C65.068245,94.530357 66.561134,96.656876 66.580452,97.832275
	C66.763336,108.963356 66.689362,120.098663 66.689362,132.099152
	C58.989677,128.441788 54.188316,122.787201 49.928478,116.033386
z"/>
</svg>
